<svg xmlns="http://www.w3.org/2000/svg" xmlns:xlink="http://www.w3.org/1999/xlink" viewBox="0 0 500 500"><defs><clipPath id="freepik--clip-path--inject-88"><path d="M384.15,463.9c-5.2-.19-13.36-.2-16.67-3.16a10.75,10.75,0,0,1-3.05-11.5c1.4-3.94,5.19-7.13,9.71-8.41,1.63-.46,3.7-1,3.94-2.47.19-1.18-1-2.14-1.64-3.18a5.69,5.69,0,0,1,.05-5.79,16.43,16.43,0,0,1,4.31-4.67,131,131,0,0,1,13.21-9c1.2-.75,2.8-1.52,4.07-.85s1.23,2,1,3.09-.55,2.35.06,3.35,2.2,1.52,3.55,1.94c3.12,1,6.09,2.64,7.71,5.15a6.23,6.23,0,0,1-.79,8c8.53,1.1,15.6,7.95,15.93,15.44a10.09,10.09,0,0,1-3.37,8.33c-2.64,2.19-6.48,2.82-10.11,3.22a149.11,149.11,0,0,1-32.58,0" style="fill:none"></path></clipPath></defs><g id="freepik--Dog--inject-88"><path d="M267.6,317.88l-71.5,19.43c-1,17.24,5.58,34.41,16.17,48,3.28,4.22,7,8.2,9.29,13,3.82,7.85,3.59,17.18,1.17,25.56s-6.87,16-11.33,23.52c-4.12-4.08-11-4.52-16.15-1.78s-7.95,11.84-9.15,17.51h28.39a8.9,8.9,0,0,0,6.4-4c4.3-6,5.58-7.54,7.7-10.66l28.93-42.63a49.15,49.15,0,0,1-11.35-29.67C245.81,365.38,261.24,326.59,267.6,317.88Z" style="fill:#FFFFFF"></path><g style="opacity:0.30000000000000004"><path d="M250,358.57c4.92-15.4,13.3-34.84,17.57-40.69l-71.5,19.43a64.36,64.36,0,0,0,3,23.34s18.69-7,28.09-5.88S250,358.57,250,358.57Z"></path></g><path d="M47.21,156.91C45,159,25.26,181.11,23,221.65c0,0-2.57,13.4-1,15s3.93-4.47,3.93-4.47-4.36,7.91-2.11,22,2.59,21,18.92,57.55,61.35,47.58,61.35,47.58,48.43-9.86,50.12-10.42,33.21-4.51,54-13.52,32.09-.56,40,7.32S287.6,381.53,291,389.41s8.44,18.58,12.38,24.21,10.7,18.57,10.13,25.33-11.26,17.45-2.25,24.21h25.34s-1.69-20.27-9-37.72-20.27-38.85-19.71-56.86-.56-41.1-1.68-49.54-2.82-17.15-2.82-17.15l-2.81,4.2s.56-25.33-18.58-42.78-39.41-36-77.69-32.09-51.23,8.44-62.49,5.06-19.7-4.5-22-12.94l7.32-34.91s1.13-16.89-3.37-25.89S102.07,145,92.25,142.87C87.33,141.83,63,141.71,47.21,156.91Z" style="fill:#FFFFFF"></path><path d="M91.42,190.32c-.06.08-.74-.52-2-1.09A9.61,9.61,0,0,0,84,188.5a9.71,9.71,0,0,0-4.87,2.36c-1.05.95-1.52,1.73-1.59,1.68a4.84,4.84,0,0,1,1.33-1.94,9,9,0,0,1,10.65-1.7A5,5,0,0,1,91.42,190.32Z" style="fill:#263238"></path><path d="M159.54,345.71a30.44,30.44,0,0,1-11-27.83L84.9,338.56c16.48,12.78,27.4,31.63,34,51.4s9.35,40.59,12,61.27c-10.79,4.67-8.75,16.51-8.75,16.51H152c3.56-4.1,6.25-11.94,6.2-17.38,0-1.66-2.08-5.07-3-8.36C146.48,410.55,149,376.6,159.54,345.71Z" style="fill:#FFFFFF"></path><path d="M81.68,335.68c-.22.24-2.38-1.19-5.29-4.18a49.26,49.26,0,0,1-4.68-5.64,59.38,59.38,0,0,1-4.58-7.72,58.13,58.13,0,0,1-3.25-8.38,50.35,50.35,0,0,1-1.55-7.16c-.55-4.14-.34-6.72,0-6.74s.83,2.47,1.82,6.39c.49,2,1.17,4.26,2,6.77a82.5,82.5,0,0,0,3.31,8,81,81,0,0,0,4.23,7.52c1.45,2.23,2.84,4.18,4.08,5.78C80.25,333.49,82,335.39,81.68,335.68Z" style="fill:#FFFFFF"></path><path d="M348,177.14c-1.79-9.6-5.62-19.07-12.48-26s-17.09-11-26.62-8.89c-13.88,3.06-17.5,13.84-19.85,27.85s5.35,29,3.42,43.12-19.83,32.23-33.37,36.52L274,266.17a75.26,75.26,0,0,0,74-89Z" style="fill:#FFFFFF"></path><path d="M43.57,245.3A40.94,40.94,0,0,0,42.21,261l5.26-8.67a20.74,20.74,0,0,0,3,14.08l3.3-8.94a50.46,50.46,0,0,0,11,18.93" style="fill:#FFFFFF"></path><path d="M64.76,276.35s-.12-.08-.31-.28-.48-.48-.83-.87c-.71-.79-1.71-2-2.87-3.53a49.79,49.79,0,0,1-7.25-14.18H54c-1,2.77-2.12,5.79-3.28,8.95l-.18.49-.28-.44a21.53,21.53,0,0,1-2-4.09,21,21,0,0,1-1-10.16l.46.16-5.28,8.65-.34.54L42,261a40,40,0,0,1,.48-11.48c.26-1.36.53-2.41.73-3.12.1-.36.19-.62.25-.8s.1-.28.11-.27a7.88,7.88,0,0,1-.23,1.1c-.16.72-.4,1.77-.62,3.13a41.86,41.86,0,0,0-.29,11.39l-.4-.09,5.22-8.67.65-1.07-.19,1.23a20.6,20.6,0,0,0,2.94,13.9l-.46,0,3.31-8.93.24-.66.21.67a52.14,52.14,0,0,0,7,14.15c1.12,1.59,2.09,2.78,2.76,3.59l.77.93A1.93,1.93,0,0,1,64.76,276.35Z" style="fill:#263238"></path><path d="M112.94,354.37l-71.15-46c2.14,11.31,16.22,33.15,23,43.93l.3,98.12c-9-.5-17,3.69-17.55,12.71H81.05s3.75-12.27,6.26-16.82-.69-12.54-.69-12.54C86.62,405.55,96,376.72,112.94,354.37Z" style="fill:#FFFFFF"></path><path d="M66.76,305.81a4.39,4.39,0,0,1,.07.78c.06.51,0,1.26.16,2.21a38.66,38.66,0,0,0,1.71,8,61.18,61.18,0,0,0,4.87,11.06,116.17,116.17,0,0,0,8.06,12.45A58.8,58.8,0,0,0,92,350.79c3.52,2.9,6.78,5.42,9.39,7.7a57.64,57.64,0,0,1,5.88,5.72c.66.71,1.09,1.34,1.41,1.73a3.63,3.63,0,0,1,.45.63,4.24,4.24,0,0,1-.53-.56c-.35-.37-.8-1-1.48-1.66a65.64,65.64,0,0,0-6-5.58c-2.64-2.24-5.92-4.72-9.47-7.61a58.12,58.12,0,0,1-10.49-10.58,111,111,0,0,1-8.06-12.52,59.67,59.67,0,0,1-4.81-11.18,36.12,36.12,0,0,1-1.55-8.06,20.83,20.83,0,0,1-.06-2.23A3.92,3.92,0,0,1,66.76,305.81Z" style="fill:#263238"></path><path d="M157.1,350.09a84.74,84.74,0,0,1,15.47-24.18,49.22,49.22,0,0,0-12.32,8.18,147.75,147.75,0,0,1,8.84-18.43" style="fill:#FFFFFF"></path><path d="M169.09,315.66a1.5,1.5,0,0,1-.15.36l-.52,1-1.93,3.75c-1.63,3.22-3.82,7.84-6,13.41l-.39-.27a48.46,48.46,0,0,1,9.48-6.77c1-.54,2-1,2.89-1.47l1.18-.55-.87,1a87.41,87.41,0,0,0-11.9,16.58c-1.25,2.27-2.17,4.14-2.79,5.43l-.7,1.49a2.34,2.34,0,0,1-.28.51,2.92,2.92,0,0,1,.19-.54c.14-.36.33-.88.62-1.54.56-1.32,1.44-3.22,2.65-5.51a82.61,82.61,0,0,1,11.82-16.77l.3.41c-.92.44-1.89.92-2.86,1.45a50.18,50.18,0,0,0-9.41,6.68l-.77.7.39-1a134.83,134.83,0,0,1,6.2-13.37c.85-1.6,1.56-2.84,2.05-3.69l.59-1A1.21,1.21,0,0,1,169.09,315.66Z" style="fill:#263238"></path><path d="M266.05,360.65l-.18-.16-.48-.47-1.83-1.88c-1.58-1.64-3.83-4-6.6-7a119.44,119.44,0,0,0-10.14-10,41.1,41.1,0,0,0-6.9-4.73,34.83,34.83,0,0,0-8.39-3.17,32,32,0,0,0-8.92-.76,46.07,46.07,0,0,0-8.28,1.28,114.59,114.59,0,0,0-13.55,4.41c-3.8,1.45-6.86,2.65-9,3.39-1.06.39-1.91.65-2.48.83l-.65.2c-.15.05-.23.06-.23.05l.21-.1.63-.25c.56-.21,1.4-.5,2.45-.92,2.13-.8,5.17-2,9-3.54a109.45,109.45,0,0,1,13.57-4.54,46.49,46.49,0,0,1,8.37-1.32,32,32,0,0,1,9.06.77,35,35,0,0,1,8.51,3.22,40.29,40.29,0,0,1,7,4.81,115.37,115.37,0,0,1,10.1,10.13l6.48,7.13,1.75,1.94.45.52C266,360.58,266.06,360.64,266.05,360.65Z" style="fill:#263238"></path><g style="opacity:0.30000000000000004"><path d="M117.81,223.66c-7.21,2.62-13,7.79-15.63,13.93l4.57-1.83a34.39,34.39,0,0,0-7.9,21.87c-5.19-8.62-4.57-21.86-.24-26a16.12,16.12,0,0,1,10.87-7.21C116.83,223.26,117.81,223.66,117.81,223.66Z"></path></g><path d="M292.38,275.87a11.32,11.32,0,0,1-1-1.44c-.59-1-1.49-2.31-2.65-3.95s-2.6-3.53-4.31-5.56-3.7-4.14-5.91-6.25-4.47-4-6.57-5.57-4.08-2.94-5.78-4-3.1-1.89-4.08-2.42a11.43,11.43,0,0,1-1.5-.9,10.5,10.5,0,0,1,1.59.72c1,.48,2.45,1.26,4.18,2.29a68.25,68.25,0,0,1,5.88,3.93,71.75,71.75,0,0,1,12.56,11.9c1.69,2.05,3.13,4,4.25,5.65s2,3.06,2.51,4.05A12.07,12.07,0,0,1,292.38,275.87Z" style="fill:#263238"></path><path d="M328,178a2.5,2.5,0,0,1-.15-.58c-.09-.38-.16-.94-.34-1.66a36.33,36.33,0,0,0-1.94-6,35.7,35.7,0,0,0-4.82-8.18,34.74,34.74,0,0,0-8.78-8l.38-.27c.54,2.42,1,5,1.44,7.55a123.51,123.51,0,0,1,1.45,14.72l0,.91-.48-.78a26.88,26.88,0,0,0-5.95-6.79l.33-.19c.69,4.19,1.25,7.62,1.66,10.06.17,1.16.31,2.08.42,2.77a6.19,6.19,0,0,1,.11,1,6.28,6.28,0,0,1-.23-.95l-.53-2.75c-.44-2.43-1.07-5.86-1.83-10l-.09-.52.42.33a27.11,27.11,0,0,1,6.09,6.86l-.44.14a131.84,131.84,0,0,0-1.48-14.66c-.41-2.59-.9-5.1-1.42-7.52l-.14-.6.52.33a34.76,34.76,0,0,1,8.86,8.12,34.26,34.26,0,0,1,4.77,8.33,32.2,32.2,0,0,1,1.81,6.09c.16.73.2,1.3.26,1.69A4.22,4.22,0,0,1,328,178Z" style="fill:#263238"></path><path d="M99.24,364.53a6.1,6.1,0,0,1-1.16-.31l-3.24-1-11.4-3.7.26-.36A19.08,19.08,0,0,0,89,363.85l-.23.45a60.75,60.75,0,0,1-22.91-15.52,59.16,59.16,0,0,1-4.12-5l-1-1.46a2.09,2.09,0,0,1-.32-.52,3.27,3.27,0,0,1,.4.46l1.07,1.4c1,1.18,2.34,2.92,4.23,4.88a62.77,62.77,0,0,0,17,12.69c2,1,3.94,1.86,5.85,2.62l-.22.45a19.27,19.27,0,0,1-5.43-4.84l-.46-.6.72.24L94.93,363l3.19,1.13A7.76,7.76,0,0,1,99.24,364.53Z" style="fill:#263238"></path><path d="M30.72,282.75s23.14,18.74,30,14.9,71.87-64,71.87-64L147,237.76s-64.21,64.72-65.59,69.95c0,0-9.29,12.86-4.51,23s26.67,30,26.67,30-33.14-9.38-41.25-21.39S46.17,313,46.17,313l-5.41-5.62C36.7,300.71,33.46,292.27,30.72,282.75Z" style="fill:#263238"></path><path d="M157.94,348.2s24-14,27.67-26.53,5.35-89,5.35-89l-21.57,2.88s6.4,70.11,3.18,82.28S157.94,348.2,157.94,348.2Z" style="fill:#263238"></path><path d="M140.55,242.11a119.61,119.61,0,0,0,36.22-1.38l-.9-6.29a205.35,205.35,0,0,1-37.57,2.17" style="fill:#263238"></path><path d="M99.31,146.33s16.63-17.23,20.54-18.88,6.36,0,7.39,3.91-.86,18.72-5.16,28.35" style="fill:#FFFFFF"></path><path d="M48.53,155.69s3.72-14.08,6.84-21.25S70.08,110.55,73,111.65s5.7,4.78,9.56,14.15,6.79,16.74,6.79,16.74" style="fill:#FFFFFF"></path><path d="M121.62,177.74a3.65,3.65,0,0,0-5.22,4.12,5.43,5.43,0,0,0,1.72,2.71,5.11,5.11,0,0,0,2.3.56,3.12,3.12,0,0,0,1.89-.82,3.34,3.34,0,0,0,1-1.15,4.83,4.83,0,0,0,.1-3.49,3.18,3.18,0,0,0-2.85-2.16" style="fill:#263238"></path><path d="M115.64,177.86A54.83,54.83,0,0,0,135,190.38c8.4,3.11,14.56,6.62,11.91,13.5s-12.1,16-18.72,18.12-13-.12-19.93,3.06S96,237.76,96,237.76" style="fill:#FFFFFF"></path><path d="M96,237.76a1,1,0,0,1,.11-.25c.09-.17.22-.41.4-.72.37-.63.93-1.53,1.72-2.66a39.73,39.73,0,0,1,3.12-3.92,24.74,24.74,0,0,1,5-4.36,16.56,16.56,0,0,1,1.66-.93,18.59,18.59,0,0,1,1.84-.74,20.46,20.46,0,0,1,4.1-1c2.88-.41,6-.28,9.2-.54a22.21,22.21,0,0,0,4.83-.91,20.35,20.35,0,0,0,4.58-2.27,35.82,35.82,0,0,0,4.27-3.21,43.17,43.17,0,0,0,3.94-3.84,28.91,28.91,0,0,0,5.9-9,6.85,6.85,0,0,0,.06-4.9,8.92,8.92,0,0,0-3.09-3.65,35.78,35.78,0,0,0-8.16-4.08,53.63,53.63,0,0,1-7.31-3.34,55.45,55.45,0,0,1-9.53-6.65c-1-.91-1.8-1.65-2.31-2.16l-.57-.6a1.1,1.1,0,0,1-.17-.22s.08,0,.21.18l.6.56c.53.49,1.32,1.2,2.37,2.08a58.85,58.85,0,0,0,9.58,6.49,55.36,55.36,0,0,0,7.29,3.26,35.4,35.4,0,0,1,8.28,4.1,9.31,9.31,0,0,1,3.27,3.84,7.39,7.39,0,0,1,0,5.26,29.2,29.2,0,0,1-6,9.17,42.85,42.85,0,0,1-4,3.88,36.07,36.07,0,0,1-4.34,3.25,21.18,21.18,0,0,1-4.7,2.32,22.2,22.2,0,0,1-4.94.91c-3.26.25-6.34.11-9.18.49a19.6,19.6,0,0,0-4,.91,17.9,17.9,0,0,0-1.81.71,16.78,16.78,0,0,0-1.62.89,25.49,25.49,0,0,0-5,4.24,44.43,44.43,0,0,0-3.16,3.85c-.81,1.1-1.4,2-1.8,2.59l-.44.69A1.27,1.27,0,0,1,96,237.76Z" style="fill:#263238"></path><path d="M88.26,176.17a4.46,4.46,0,0,0-6.37,5,6.75,6.75,0,0,0,2.1,3.31,6.48,6.48,0,0,0,2.82.68,3.72,3.72,0,0,0,2.3-1,4.09,4.09,0,0,0,1.24-1.39,6,6,0,0,0,.12-4.27A3.89,3.89,0,0,0,87,175.89" style="fill:#263238"></path><path d="M146.92,198.34a6.28,6.28,0,0,0-3.22-3.78,13,13,0,0,0-4.56-1.17q-3.09-.37-6.2-.49c-1.17,0-2.61.13-3.1,1.38s.3,2.56,1,3.57a23.26,23.26,0,0,0,5.39,5.73,7.49,7.49,0,0,0,7,1.09,6.47,6.47,0,0,0,3.65-6.64" style="fill:#263238"></path><path d="M96.44,207.81a3.7,3.7,0,0,0,.4,2.21,15,15,0,0,0,4.25,4.55,39.32,39.32,0,0,0,8.06,4.66,30.22,30.22,0,0,0,5.2,1.74,43.37,43.37,0,0,0,5.85.83,17.76,17.76,0,0,0,5.82-.48,14.67,14.67,0,0,0,4.87-2.39,23.4,23.4,0,0,0,6.08-7,61.48,61.48,0,0,0,2.9-5.6l.74-1.56a4.19,4.19,0,0,1,.28-.53,2.4,2.4,0,0,1-.19.58c-.16.41-.38.94-.64,1.59a52.47,52.47,0,0,1-2.77,5.71,23.31,23.31,0,0,1-6.12,7.16,15.3,15.3,0,0,1-5,2.5,18.34,18.34,0,0,1-6,.5,42.75,42.75,0,0,1-5.93-.85,30.32,30.32,0,0,1-5.28-1.8,38.07,38.07,0,0,1-8.1-4.81,14.42,14.42,0,0,1-4.2-4.76,3.39,3.39,0,0,1-.35-1.7A1.64,1.64,0,0,1,96.44,207.81Z" style="fill:#263238"></path><g style="opacity:0.30000000000000004"><path d="M61.49,148.54a60.16,60.16,0,0,1,7.79-22.94c.75-1.29,2.07-2.73,3.45-2.16a3.16,3.16,0,0,1,1.43,1.69,115.25,115.25,0,0,1,7.25,18.29,35.23,35.23,0,0,0-19.72,6.81"></path></g><g style="opacity:0.30000000000000004"><path d="M107.87,147.7c4.47,2.05,6.69,5,10.28,8.31a49.77,49.77,0,0,0,5.28-17.32c.13-1.12.12-2.45-.79-3.11-1.12-.81-2.66,0-3.74.89a63.72,63.72,0,0,0-11,11.23"></path></g><path d="M140.66,196.52c-.06.14-2-.62-4.56-.83s-4.61.18-4.64,0a9.3,9.3,0,0,1,4.68-.55A9.14,9.14,0,0,1,140.66,196.52Z" style="fill:#fff"></path><path d="M38.1,302.51a2.55,2.55,0,0,1,.61.05c.4.05,1,.16,1.74.33a14.77,14.77,0,0,1,5.82,2.85,33.09,33.09,0,0,1,6.16,7.41A75.86,75.86,0,0,1,58,323.54c1.73,3.8,3.29,7.45,5,10.64a49.33,49.33,0,0,0,5.13,8.05,30.6,30.6,0,0,0,4.48,4.61c1.17,1,1.89,1.43,1.86,1.48a2.83,2.83,0,0,1-.54-.31,15.23,15.23,0,0,1-1.44-1,28.64,28.64,0,0,1-4.65-4.53,48.11,48.11,0,0,1-5.26-8.06c-1.72-3.2-3.3-6.86-5-10.65A76.87,76.87,0,0,0,52,313.41,33.76,33.76,0,0,0,46,306a15.39,15.39,0,0,0-5.64-2.93C38.93,302.67,38.09,302.56,38.1,302.51Z" style="fill:#455a64"></path><path d="M133.93,235.05a2.31,2.31,0,0,1-.22.26c-.17.19-.4.43-.69.73l-2.69,2.79c-2.35,2.4-5.77,5.86-10,10.08-8.53,8.46-20.49,20-34,32.33-6.78,6.18-13.28,12-19.3,17.21a23.19,23.19,0,0,1-4.87,3.24,10.4,10.4,0,0,1-5.44,1,14,14,0,0,1-4.9-1.59,39.72,39.72,0,0,1-4-2.47c-5-3.34-9-6.18-11.61-8.24-1.33-1-2.35-1.84-3-2.4l-.78-.64c-.17-.15-.26-.23-.25-.24l.28.19.81.61,3.09,2.32c2.69,2,6.67,4.8,11.69,8.09a40.73,40.73,0,0,0,4,2.42,13.55,13.55,0,0,0,4.77,1.52,9.77,9.77,0,0,0,5.2-1,22.21,22.21,0,0,0,4.75-3.19c6-5.21,12.49-11.05,19.26-17.22C99.44,268.51,111.44,257,120,248.65l10.16-10L133,236l.72-.7A2.31,2.31,0,0,1,133.93,235.05Z" style="fill:#455a64"></path><path d="M99.73,359.54l-.64-.43-1.87-1.3c-1.64-1.15-4-2.85-7-5.21a64.76,64.76,0,0,1-10-9.58,39.66,39.66,0,0,1-4.74-7.25,32.26,32.26,0,0,1-3.08-9.2,24.29,24.29,0,0,1,.47-10.65,31.51,31.51,0,0,1,5.29-10.29,104,104,0,0,1,8.13-9.36c2.92-3.09,6-6.25,9.12-9.44,12.6-12.82,27.1-26.24,41.53-41.12,1.83-1.88,3.62-3.78,5.4-5.65l.08-.08h.1l31.95-.79h.24l0,.24c1.1,15.9,1.93,30.76,2.06,44.11.08,6.67,0,13-.16,18.8a101.27,101.27,0,0,1-1.48,16.1,45.73,45.73,0,0,1-4.13,12.5,33.58,33.58,0,0,1-5.64,8.05,25.27,25.27,0,0,1-4.73,3.93,17.91,17.91,0,0,1-1.84,1.07l.45-.29c.3-.2.77-.44,1.34-.85a25.75,25.75,0,0,0,4.65-4,33.86,33.86,0,0,0,5.55-8,46.21,46.21,0,0,0,4-12.45,102.09,102.09,0,0,0,1.41-16.05c.14-5.84.2-12.12.11-18.79-.16-13.33-1-28.17-2.13-44.07l.25.23-31.94.81.18-.09c-1.78,1.88-3.57,3.78-5.41,5.66-14.44,14.89-28.95,28.31-41.56,41.09q-4.74,4.79-9.13,9.43a104.37,104.37,0,0,0-8.12,9.29A31.31,31.31,0,0,0,73.23,316a24.13,24.13,0,0,0-.5,10.48,32.12,32.12,0,0,0,3,9.11,38.1,38.1,0,0,0,4.67,7.21,65.49,65.49,0,0,0,9.89,9.61c3,2.38,5.36,4.1,7,5.29l1.84,1.34C99.53,359.37,99.73,359.54,99.73,359.54Z" style="fill:#455a64"></path><path d="M186.08,233.37a1.5,1.5,0,0,1,0,.31c0,.24,0,.54,0,.92,0,.84-.09,2-.15,3.53-.14,3.06-.34,7.5-.53,13-.39,11-.59,26.11-.18,42.84.17,8.34-.09,16.47-2.33,23.45a42.37,42.37,0,0,1-10,16.39,58.81,58.81,0,0,1-10,8.25c-1.29.82-2.31,1.44-3,1.83l-.81.44a1.37,1.37,0,0,1-.28.14s.08-.07.26-.18l.77-.49c.7-.41,1.69-1.06,3-1.91a60.88,60.88,0,0,0,9.89-8.33,42.34,42.34,0,0,0,9.8-16.28c2.19-6.91,2.44-15,2.27-23.31-.41-16.73-.15-31.9.33-42.86.24-5.48.49-9.91.69-13,.11-1.5.2-2.68.26-3.53,0-.37.06-.68.08-.91A1.44,1.44,0,0,1,186.08,233.37Z" style="fill:#455a64"></path></g></svg>
